<?xml version="1.0" encoding="iso-8859-1"?><!DOCTYPE svg PUBLIC "-//W3C//DTD SVG 1.1//EN" "http://www.w3.org/Graphics/SVG/1.1/DTD/svg11.dtd"><svg xmlns="http://www.w3.org/2000/svg" xmlns:xlink="http://www.w3.org/1999/xlink"><symbol viewBox="0 0 512 512" id="address" xmlns="http://www.w3.org/2000/svg"><path d="M256 0C161.896 0 85.333 76.563 85.333 170.667c0 28.25 7.063 56.26 20.49 81.104L246.667 506.5c1.875 3.396 5.448 5.5 9.333 5.5s7.458-2.104 9.333-5.5l140.896-254.813c13.375-24.76 20.438-52.771 20.438-81.021C426.667 76.563 350.104 0 256 0zm0 256c-47.052 0-85.333-38.281-85.333-85.333S208.948 85.334 256 85.334s85.333 38.281 85.333 85.333S303.052 256 256 256z"/></symbol><symbol viewBox="0 0 97.16 97.16" id="clock" xmlns="http://www.w3.org/2000/svg"><path d="M48.58 0C21.793 0 0 21.793 0 48.58s21.793 48.58 48.58 48.58 48.58-21.793 48.58-48.58S75.367 0 48.58 0zm0 86.823c-21.087 0-38.244-17.155-38.244-38.243S27.493 10.337 48.58 10.337 86.824 27.492 86.824 48.58 69.667 86.823 48.58 86.823z"/><path d="M73.898 47.08H52.066V20.83a4 4 0 0 0-8 0v30.25a4 4 0 0 0 4 4h25.832a4 4 0 0 0 0-8z"/></symbol><symbol viewBox="0 0 27.857 27.857" id="email" xmlns="http://www.w3.org/2000/svg"><path d="M2.203 5.331l10.034 7.948c.455.36 1.082.52 1.691.49.608.03 1.235-.129 1.69-.49l10.034-7.948c.804-.633.622-1.152-.398-1.152H2.604c-1.021 0-1.203.519-.401 1.152z"/><path d="M26.377 7.428l-10.965 8.325c-.41.308-.947.458-1.482.451-.536.007-1.073-.144-1.483-.451L1.48 7.428C.666 6.811 0 7.142 0 8.163v13.659c0 1.021.836 1.857 1.857 1.857H26a1.863 1.863 0 0 0 1.857-1.857V8.163c0-1.021-.666-1.352-1.48-.735z"/></symbol><symbol viewBox="0 0 359.448 359.448" id="headset" xmlns="http://www.w3.org/2000/svg"><path d="M354.724 171.16c0-26.69-14.734-49.991-36.486-62.236C304.906 46.92 245 0 173.319 0 97.486 0 34.83 52.514 26.559 119.847 13.112 132.835 4.724 151.031 4.724 171.16c0 39.358 32.021 71.379 71.379 71.379a5 5 0 0 0 5-5v-132.76a5 5 0 0 0-5-5c-3.361 0-6.664.25-9.904.703 15.92-38.884 57.928-66.729 107.12-66.729 49.269 0 91.329 27.933 107.192 66.913a4.99 4.99 0 0 0-2.166 4.114v132.76a5 5 0 0 0 5 5c1.654 0 3.289-.077 4.915-.188-11.071 34.443-41.038 61.811-79.183 72.519-4.566-7.385-12.735-12.309-22.056-12.309h-27.404c-14.312 0-25.917 11.603-25.917 25.916v5.054c0 14.314 11.605 25.918 25.917 25.918h27.404c13.065 0 23.87-9.672 25.653-22.247 51.311-13.492 90.777-52.673 100.435-101.19 24.535-11.308 41.615-36.116 41.615-64.853z"/></symbol><symbol id="logo-nueva-bk" viewBox="0 0 107 30.5" xmlns="http://www.w3.org/2000/svg"><style>.est0{fill:#707173}</style><linearGradient id="eSVGID_1_" gradientUnits="userSpaceOnUse" x1="-244.5" y1="435.147" x2="-243.793" y2="434.44"><stop offset="0" stop-color="#259e2e"/><stop offset=".983" stop-color="#1c381d"/></linearGradient><path class="est0" d="M98.5 4.8c0 .4-.3.7-.7.7-.4 0-.7-.3-.7-.7V1.7c0-.4.3-.7.7-.7.4 0 .7.3.7.7v3.1zm-1.3 6.7c0-.4.3-.7.7-.7.4 0 .7.3.7.7v3.1c0 .4-.3.7-.7.7-.4 0-.7-.3-.7-.7v-3.1zm3.5-5.3c-.3.3-.7.3-.9 0-.3-.3-.3-.7 0-.9l2.2-2.2c.3-.3.7-.3.9 0 .3.3.3.7 0 .9l-2.2 2.2zM95 10.1c.3-.3.7-.3.9 0 .3.3.3.7 0 .9l-2.2 2.2c-.3.3-.7.3-.9 0-.3-.3-.3-.7 0-.9l2.2-2.2zm6.2-1.3c-.4 0-.7-.3-.7-.7 0-.4.3-.7.7-.7h3.1c.4 0 .7.3.7.7 0 .4-.3.7-.7.7h-3.1zm-6.7-1.3c.4 0 .7.3.7.7 0 .4-.3.7-.7.7h-3.1c-.4 0-.7-.3-.7-.7 0-.4.3-.7.7-.7h3.1zm5.3 3.5c-.3-.3-.3-.7 0-.9.3-.3.7-.3.9 0l2.2 2.2c.3.3.3.7 0 .9-.3.3-.7.3-.9 0L99.8 11zm-3.9-5.7c.3.3.3.7 0 .9-.3.3-.7.3-.9 0L92.8 4c-.3-.3-.3-.7 0-.9.3-.3.7-.3.9 0l2.2 2.2z"/><circle class="est0" cx="97.9" cy="8.2" r="1"/><path class="est0" d="M74.4 8.9c-.3-.3-.7-.5-1.2-.5-.9 0-1.4.5-1.8 1.4l-6.6 14.1-6.5-14.1c-.4-1-.9-1.4-1.8-1.4-.4 0-.9.2-1.2.5-.3.3-.5.7-.5 1.2s.2.9.4 1.2L63 28.2c.3.7 1 1.2 1.8 1.2s1.5-.5 1.8-1.2l7.8-16.9c.1-.3.4-.7.4-1.2.1-.5-.1-.9-.4-1.2zm-54.6 1.2c0-.5.2-1 .5-1.3.3-.3.7-.5 1.2-.5s.9.2 1.2.5c.3.3.5.7.5 1.3v11.2c0 1.6.4 2.8 1.2 3.7.8.9 2 1.4 3.5 1.4 3.2 0 4.8-1.7 4.8-5.1V10.1c0-.5.2-1 .5-1.3.3-.3.7-.5 1.2-.5s.9.2 1.2.5c.3.3.5.7.5 1.3v11.3c0 1.4-.3 2.7-.8 3.9-.6 1.2-1.5 2.2-2.7 2.9-1.2.7-2.8 1.1-4.7 1.1-1.8 0-3.3-.4-4.5-1.1-1.2-.7-2.1-1.7-2.6-2.9-.6-1.2-.9-2.5-.9-4V10.1zm-1.5 17.5c0 .5-.2 1-.5 1.3-.3.3-.7.5-1.2.5s-.9-.2-1.2-.5c-.3-.3-.5-.7-.5-1.3V16.4c0-1.6-.4-2.8-1.2-3.7-.8-.9-2-1.4-3.5-1.4-3.2 0-4.8 1.7-4.8 5.1v11.2c0 .5-.2 1-.5 1.3-.3.3-.7.5-1.2.5s-.9-.2-1.2-.5c-.3-.3-.5-.7-.5-1.3V16.4c0-1.4.3-2.7.8-3.9.6-1.2 1.5-2.2 2.7-2.9 1.2-.7 2.8-1.1 4.7-1.1 1.8 0 3.3.4 4.5 1.1 1.2.7 2.1 1.7 2.6 2.9.6 1.2.9 2.5.9 4v11.1zM54 23.7c-.3 0-.7.2-1.3.6-1.7 1.4-3.5 2.1-5.5 2.1-1.1 0-2.2-.2-3.1-.7-.9-.5-1.7-1.2-2.2-2.1-.6-.9-1.1-3.2-1.1-4.8 0-2.1.8-4.8 1.9-5.9 1-1.1 2.4-1.7 4.1-1.7 1.7 0 3 .6 4 1.8 1 1.1 1.5 2.7 1.5 4.5h-9.5s-1.1-.1-1.1 1.3c0 1.4 1.1 1.3 1.1 1.3h11c1.3 0 1.9-.6 1.9-1.7 0-1.7-.4-3.4-1.1-4.9-.7-1.6-1.8-2.8-3.2-3.8-1.4-1-2.9-1.4-4.7-1.4-1.8 0-3.4.5-4.7 1.5-1.3 1-2.4 2.3-3.1 3.8-.7 1.6-1.1 3.2-1.2 5 0 0 0 2 .5 3.9.3 1.2.9 2.3 1.6 3.4.8 1 1.7 1.9 3 2.5 1.2.6 2.7.9 4.4.9 1.6 0 3.1-.3 4.5-.9 1.4-.6 2.5-1.3 3.2-2.1.3-.4.5-.8.5-1.2 0-.4-.1-.7-.3-1-.4-.2-.7-.4-1.1-.4zm34.9-12.9c-1.5-1.8-3.6-2.4-6.4-2.4-2 0-3.5.5-4.6 1.2-1.2.7-2 1.8-2.4 2.6-.2.4-.6 1.5.5 2.1 1 .6 2 .1 2.4-.7.6-1.2 1.8-2.3 4.2-2.3 1.5 0 2.8.3 3.8 1.6.9 1.1 1.1 2.3 1 4.7H79c-4.6 0-6.8 7.3-2 10.4 1.4.9 2.9 1.4 4.7 1.4 1.8 0 3.5-.5 4.9-1.4.5-.4.7-1.1.2-1.9-.4-.7-1.1-1-2-.4-.8.5-1.4.8-3.1.8-1.8 0-2.9-.6-3.9-1.8-1.1-1.5-.9-4.5 2.2-4.5h7.4v7.5c0 .5.2 1 .5 1.3.3.3.7.5 1.2.5s.8-.2 1.2-.5c.3-.3.5-.7.5-1.3V19c0-3.2.3-5.6-1.9-8.2z"/></symbol><symbol id="logo-nueva-wh" viewBox="0 0 107 30.5" xmlns="http://www.w3.org/2000/svg"><style>.fst0{fill:#fff}</style><linearGradient id="fSVGID_1_" gradientUnits="userSpaceOnUse" x1="-244.5" y1="435.147" x2="-243.793" y2="434.44"><stop offset="0" stop-color="#259e2e"/><stop offset=".983" stop-color="#1c381d"/></linearGradient><path class="fst0" d="M98.5 4.8c0 .4-.3.7-.7.7-.4 0-.7-.3-.7-.7V1.7c0-.4.3-.7.7-.7.4 0 .7.3.7.7v3.1zm-1.3 6.7c0-.4.3-.7.7-.7.4 0 .7.3.7.7v3.1c0 .4-.3.7-.7.7-.4 0-.7-.3-.7-.7v-3.1zm3.5-5.3c-.3.3-.7.3-.9 0-.3-.3-.3-.7 0-.9l2.2-2.2c.3-.3.7-.3.9 0 .3.3.3.7 0 .9l-2.2 2.2zM95 10.1c.3-.3.7-.3.9 0 .3.3.3.7 0 .9l-2.2 2.2c-.3.3-.7.3-.9 0-.3-.3-.3-.7 0-.9l2.2-2.2zm6.2-1.3c-.4 0-.7-.3-.7-.7 0-.4.3-.7.7-.7h3.1c.4 0 .7.3.7.7 0 .4-.3.7-.7.7h-3.1zm-6.7-1.3c.4 0 .7.3.7.7 0 .4-.3.7-.7.7h-3.1c-.4 0-.7-.3-.7-.7 0-.4.3-.7.7-.7h3.1zm5.3 3.5c-.3-.3-.3-.7 0-.9.3-.3.7-.3.9 0l2.2 2.2c.3.3.3.7 0 .9-.3.3-.7.3-.9 0L99.8 11zm-3.9-5.7c.3.3.3.7 0 .9-.3.3-.7.3-.9 0L92.8 4c-.3-.3-.3-.7 0-.9.3-.3.7-.3.9 0l2.2 2.2z"/><circle class="fst0" cx="97.9" cy="8.2" r="1"/><path class="fst0" d="M74.4 8.9c-.3-.3-.7-.5-1.2-.5-.9 0-1.4.5-1.8 1.4l-6.6 14.1-6.5-14.1c-.4-1-.9-1.4-1.8-1.4-.4 0-.9.2-1.2.5-.3.3-.5.7-.5 1.2s.2.9.4 1.2L63 28.2c.3.7 1 1.2 1.8 1.2s1.5-.5 1.8-1.2l7.8-16.9c.1-.3.4-.7.4-1.2.1-.5-.1-.9-.4-1.2zm-54.6 1.2c0-.5.2-1 .5-1.3.3-.3.7-.5 1.2-.5s.9.2 1.2.5c.3.3.5.7.5 1.3v11.2c0 1.6.4 2.8 1.2 3.7.8.9 2 1.4 3.5 1.4 3.2 0 4.8-1.7 4.8-5.1V10.1c0-.5.2-1 .5-1.3.3-.3.7-.5 1.2-.5s.9.2 1.2.5c.3.3.5.7.5 1.3v11.3c0 1.4-.3 2.7-.8 3.9-.6 1.2-1.5 2.2-2.7 2.9-1.2.7-2.8 1.1-4.7 1.1-1.8 0-3.3-.4-4.5-1.1-1.2-.7-2.1-1.7-2.6-2.9-.6-1.2-.9-2.5-.9-4V10.1zm-1.5 17.5c0 .5-.2 1-.5 1.3-.3.3-.7.5-1.2.5s-.9-.2-1.2-.5c-.3-.3-.5-.7-.5-1.3V16.4c0-1.6-.4-2.8-1.2-3.7-.8-.9-2-1.4-3.5-1.4-3.2 0-4.8 1.7-4.8 5.1v11.2c0 .5-.2 1-.5 1.3-.3.3-.7.5-1.2.5s-.9-.2-1.2-.5c-.3-.3-.5-.7-.5-1.3V16.4c0-1.4.3-2.7.8-3.9.6-1.2 1.5-2.2 2.7-2.9 1.2-.7 2.8-1.1 4.7-1.1 1.8 0 3.3.4 4.5 1.1 1.2.7 2.1 1.7 2.6 2.9.6 1.2.9 2.5.9 4v11.1zM54 23.7c-.3 0-.7.2-1.3.6-1.7 1.4-3.5 2.1-5.5 2.1-1.1 0-2.2-.2-3.1-.7-.9-.5-1.7-1.2-2.2-2.1-.6-.9-1.1-3.2-1.1-4.8 0-2.1.8-4.8 1.9-5.9 1-1.1 2.4-1.7 4.1-1.7 1.7 0 3 .6 4 1.8 1 1.1 1.5 2.7 1.5 4.5h-9.5s-1.1-.1-1.1 1.3c0 1.4 1.1 1.3 1.1 1.3h11c1.3 0 1.9-.6 1.9-1.7 0-1.7-.4-3.4-1.1-4.9-.7-1.6-1.8-2.8-3.2-3.8-1.4-1-2.9-1.4-4.7-1.4-1.8 0-3.4.5-4.7 1.5-1.3 1-2.4 2.3-3.1 3.8-.7 1.6-1.1 3.2-1.2 5 0 0 0 2 .5 3.9.3 1.2.9 2.3 1.6 3.4.8 1 1.7 1.9 3 2.5 1.2.6 2.7.9 4.4.9 1.6 0 3.1-.3 4.5-.9 1.4-.6 2.5-1.3 3.2-2.1.3-.4.5-.8.5-1.2 0-.4-.1-.7-.3-1-.4-.2-.7-.4-1.1-.4zm34.9-12.9c-1.5-1.8-3.6-2.4-6.4-2.4-2 0-3.5.5-4.6 1.2-1.2.7-2 1.8-2.4 2.6-.2.4-.6 1.5.5 2.1 1 .6 2 .1 2.4-.7.6-1.2 1.8-2.3 4.2-2.3 1.5 0 2.8.3 3.8 1.6.9 1.1 1.1 2.3 1 4.7H79c-4.6 0-6.8 7.3-2 10.4 1.4.9 2.9 1.4 4.7 1.4 1.8 0 3.5-.5 4.9-1.4.5-.4.7-1.1.2-1.9-.4-.7-1.1-1-2-.4-.8.5-1.4.8-3.1.8-1.8 0-2.9-.6-3.9-1.8-1.1-1.5-.9-4.5 2.2-4.5h7.4v7.5c0 .5.2 1 .5 1.3.3.3.7.5 1.2.5s.8-.2 1.2-.5c.3-.3.5-.7.5-1.3V19c0-3.2.3-5.6-1.9-8.2z"/></symbol><symbol viewBox="0 0 317.825 317.825" id="menu" xmlns="http://www.w3.org/2000/svg"><path d="M301.934 143.021H15.891C7.119 143.021 0 150.14 0 158.912s7.119 15.891 15.891 15.891h286.042c8.74 0 15.891-7.119 15.891-15.891.001-8.772-7.15-15.891-15.89-15.891zM15.891 79.456h286.042c8.74 0 15.891-7.119 15.891-15.891s-7.151-15.891-15.891-15.891H15.891C7.119 47.674 0 54.793 0 63.565s7.119 15.891 15.891 15.891zM301.934 238.369H15.891C7.119 238.369 0 245.52 0 254.26s7.119 15.891 15.891 15.891h286.042c8.74 0 15.891-7.151 15.891-15.891.001-8.74-7.15-15.891-15.89-15.891z"/></symbol><symbol viewBox="0 0 348.077 348.077" id="phone" xmlns="http://www.w3.org/2000/svg"><path d="M340.273 275.083l-53.755-53.761c-10.707-10.664-28.438-10.34-39.518.744l-27.082 27.076a792.327 792.327 0 0 1-5.344-2.973c-17.102-9.476-40.509-22.464-65.14-47.113-24.704-24.701-37.704-48.144-47.209-65.257-1.003-1.813-1.964-3.561-2.913-5.221l18.176-18.149 8.936-8.947c11.097-11.1 11.403-28.826.721-39.521L73.39 8.194c-10.682-10.68-28.421-10.356-39.518.744l-15.15 15.237.414.411c-5.08 6.482-9.325 13.958-12.484 22.02C3.74 54.28 1.927 61.603 1.098 68.941-6 127.785 20.89 181.564 93.866 254.541c100.875 100.868 182.167 93.248 185.674 92.876 7.638-.913 14.958-2.738 22.397-5.627 7.992-3.122 15.463-7.361 21.941-12.43l.331.294 15.348-15.029c11.074-11.098 11.393-28.83.716-39.542z"/></symbol><symbol viewBox="0 0 512 512" id="pin" xmlns="http://www.w3.org/2000/svg"><path d="M256 0C161.896 0 85.333 76.563 85.333 170.667c0 28.25 7.063 56.26 20.49 81.104L246.667 506.5c1.875 3.396 5.448 5.5 9.333 5.5s7.458-2.104 9.333-5.5l140.896-254.813c13.375-24.76 20.438-52.771 20.438-81.021C426.667 76.563 350.104 0 256 0zm0 256c-47.052 0-85.333-38.281-85.333-85.333S208.948 85.334 256 85.334s85.333 38.281 85.333 85.333S303.052 256 256 256z"/></symbol><symbol viewBox="0 0 510 510" id="question" xmlns="http://www.w3.org/2000/svg"><path d="M255 0C114.75 0 0 114.75 0 255s114.75 255 255 255 255-114.75 255-255S395.25 0 255 0zm25.5 433.5h-51v-51h51v51zm53.55-196.35L311.1 260.1c-20.399 17.851-30.6 33.15-30.6 71.4h-51v-12.75c0-28.05 10.2-53.55 30.6-71.4l30.6-33.15c10.2-7.65 15.3-20.4 15.3-35.7 0-28.05-22.95-51-51-51s-51 22.95-51 51h-51c0-56.1 45.9-102 102-102s102 45.9 102 102c0 22.95-10.2 43.35-22.95 58.65z"/></symbol><symbol viewBox="0 0 510 510" id="time" xmlns="http://www.w3.org/2000/svg"><g fill-opacity=".9"><path d="M255 0C114.75 0 0 114.75 0 255s114.75 255 255 255 255-114.75 255-255S395.25 0 255 0zm0 459c-112.2 0-204-91.8-204-204S142.8 51 255 51s204 91.8 204 204-91.8 204-204 204z" fill="#FFF"/><path d="M267.75 127.5H229.5v153l132.6 81.6 20.4-33.15-114.75-68.85z"/></g></symbol></svg>