<?xml version="1.0" encoding="utf-8"?>
<!-- Generator: Adobe Illustrator 19.0.0, SVG Export Plug-In . SVG Version: 6.00 Build 0)  -->
<svg version="1.1" id="Layer_1" xmlns="http://www.w3.org/2000/svg" xmlns:xlink="http://www.w3.org/1999/xlink" x="0px" y="0px"
	 viewBox="0 0 107 30.5" style="enable-background:new 0 0 107 30.5;" xml:space="preserve">
<style type="text/css">
	.Arched_x0020_Green{fill:url(#SVGID_1_);stroke:#FFFFFF;stroke-width:0.25;stroke-miterlimit:1;}
	.st0{fill:#FFFFFF;}
</style>
<linearGradient id="SVGID_1_" gradientUnits="userSpaceOnUse" x1="-244.5" y1="435.1467" x2="-243.7929" y2="434.4396">
	<stop  offset="0" style="stop-color:#259E2E"/>
	<stop  offset="0.9831" style="stop-color:#1C381D"/>
</linearGradient>
<g>
	<g>
		<g>
			<g>
				<path class="st0" d="M98.5,4.8c0,0.4-0.3,0.7-0.7,0.7l0,0c-0.4,0-0.7-0.3-0.7-0.7V1.7c0-0.4,0.3-0.7,0.7-0.7l0,0
					c0.4,0,0.7,0.3,0.7,0.7V4.8z"/>
				<path class="st0" d="M97.2,11.5c0-0.4,0.3-0.7,0.7-0.7l0,0c0.4,0,0.7,0.3,0.7,0.7v3.1c0,0.4-0.3,0.7-0.7,0.7l0,0
					c-0.4,0-0.7-0.3-0.7-0.7V11.5z"/>
			</g>
			<g>
				<path class="st0" d="M100.7,6.2c-0.3,0.3-0.7,0.3-0.9,0l0,0c-0.3-0.3-0.3-0.7,0-0.9l2.2-2.2c0.3-0.3,0.7-0.3,0.9,0l0,0
					c0.3,0.3,0.3,0.7,0,0.9L100.7,6.2z"/>
				<path class="st0" d="M95,10.1c0.3-0.3,0.7-0.3,0.9,0l0,0c0.3,0.3,0.3,0.7,0,0.9l-2.2,2.2c-0.3,0.3-0.7,0.3-0.9,0l0,0
					c-0.3-0.3-0.3-0.7,0-0.9L95,10.1z"/>
			</g>
			<g>
				<path class="st0" d="M101.2,8.8c-0.4,0-0.7-0.3-0.7-0.7l0,0c0-0.4,0.3-0.7,0.7-0.7h3.1c0.4,0,0.7,0.3,0.7,0.7l0,0
					c0,0.4-0.3,0.7-0.7,0.7H101.2z"/>
				<path class="st0" d="M94.5,7.5c0.4,0,0.7,0.3,0.7,0.7l0,0c0,0.4-0.3,0.7-0.7,0.7h-3.1c-0.4,0-0.7-0.3-0.7-0.7l0,0
					c0-0.4,0.3-0.7,0.7-0.7H94.5z"/>
			</g>
			<g>
				<path class="st0" d="M99.8,11c-0.3-0.3-0.3-0.7,0-0.9l0,0c0.3-0.3,0.7-0.3,0.9,0l2.2,2.2c0.3,0.3,0.3,0.7,0,0.9l0,0
					c-0.3,0.3-0.7,0.3-0.9,0L99.8,11z"/>
				<path class="st0" d="M95.9,5.3c0.3,0.3,0.3,0.7,0,0.9l0,0c-0.3,0.3-0.7,0.3-0.9,0l-2.2-2.2c-0.3-0.3-0.3-0.7,0-0.9l0,0
					c0.3-0.3,0.7-0.3,0.9,0L95.9,5.3z"/>
			</g>
		</g>
		<g>
			<circle class="st0" cx="97.9" cy="8.2" r="1"/>
			<g>
				<path class="st0" d="M74.4,8.9c-0.3-0.3-0.7-0.5-1.2-0.5c-0.9,0-1.4,0.5-1.8,1.4l-6.6,14.1L58.3,9.8c-0.4-1-0.9-1.4-1.8-1.4
					c-0.4,0-0.9,0.2-1.2,0.5c-0.3,0.3-0.5,0.7-0.5,1.2c0,0.5,0.2,0.9,0.4,1.2L63,28.2c0.3,0.7,1,1.2,1.8,1.2c0.8,0,1.5-0.5,1.8-1.2
					l7.8-16.9c0.1-0.3,0.4-0.7,0.4-1.2C74.9,9.6,74.7,9.2,74.4,8.9z"/>
				<g>
					<path class="st0" d="M19.8,10.1c0-0.5,0.2-1,0.5-1.3c0.3-0.3,0.7-0.5,1.2-0.5c0.5,0,0.9,0.2,1.2,0.5c0.3,0.3,0.5,0.7,0.5,1.3
						v11.2c0,1.6,0.4,2.8,1.2,3.7c0.8,0.9,2,1.4,3.5,1.4c3.2,0,4.8-1.7,4.8-5.1V10.1c0-0.5,0.2-1,0.5-1.3c0.3-0.3,0.7-0.5,1.2-0.5
						c0.5,0,0.9,0.2,1.2,0.5c0.3,0.3,0.5,0.7,0.5,1.3v11.3c0,1.4-0.3,2.7-0.8,3.9c-0.6,1.2-1.5,2.2-2.7,2.9
						c-1.2,0.7-2.8,1.1-4.7,1.1c-1.8,0-3.3-0.4-4.5-1.1c-1.2-0.7-2.1-1.7-2.6-2.9c-0.6-1.2-0.9-2.5-0.9-4V10.1z"/>
				</g>
				<g>
					<path class="st0" d="M18.3,27.6c0,0.5-0.2,1-0.5,1.3c-0.3,0.3-0.7,0.5-1.2,0.5c-0.5,0-0.9-0.2-1.2-0.5
						c-0.3-0.3-0.5-0.7-0.5-1.3V16.4c0-1.6-0.4-2.8-1.2-3.7c-0.8-0.9-2-1.4-3.5-1.4c-3.2,0-4.8,1.7-4.8,5.1v11.2
						c0,0.5-0.2,1-0.5,1.3c-0.3,0.3-0.7,0.5-1.2,0.5c-0.5,0-0.9-0.2-1.2-0.5c-0.3-0.3-0.5-0.7-0.5-1.3V16.4c0-1.4,0.3-2.7,0.8-3.9
						c0.6-1.2,1.5-2.2,2.7-2.9c1.2-0.7,2.8-1.1,4.7-1.1c1.8,0,3.3,0.4,4.5,1.1c1.2,0.7,2.1,1.7,2.6,2.9c0.6,1.2,0.9,2.5,0.9,4V27.6z
						"/>
				</g>
				<path class="st0" d="M54,23.7c-0.3,0-0.7,0.2-1.3,0.6c-1.7,1.4-3.5,2.1-5.5,2.1c-1.1,0-2.2-0.2-3.1-0.7
					c-0.9-0.5-1.7-1.2-2.2-2.1c-0.6-0.9-1.1-3.2-1.1-4.8c0-2.1,0.8-4.8,1.9-5.9c1-1.1,2.4-1.7,4.1-1.7c1.7,0,3,0.6,4,1.8
					c1,1.1,1.5,2.7,1.5,4.5h-9.5c0,0-1.1-0.1-1.1,1.3c0,1.4,1.1,1.3,1.1,1.3h11c1.3,0,1.9-0.6,1.9-1.7c0-1.7-0.4-3.4-1.1-4.9
					c-0.7-1.6-1.8-2.8-3.2-3.8c-1.4-1-2.9-1.4-4.7-1.4c-1.8,0-3.4,0.5-4.7,1.5c-1.3,1-2.4,2.3-3.1,3.8c-0.7,1.6-1.1,3.2-1.2,5
					c0,0,0,2,0.5,3.9c0.3,1.2,0.9,2.3,1.6,3.4c0.8,1,1.7,1.9,3,2.5c1.2,0.6,2.7,0.9,4.4,0.9c1.6,0,3.1-0.3,4.5-0.9
					c1.4-0.6,2.5-1.3,3.2-2.1c0.3-0.4,0.5-0.8,0.5-1.2c0-0.4-0.1-0.7-0.3-1C54.7,23.9,54.4,23.7,54,23.7z"/>
				<path class="st0" d="M88.9,10.8c-1.5-1.8-3.6-2.4-6.4-2.4c-2,0-3.5,0.5-4.6,1.2c-1.2,0.7-2,1.8-2.4,2.6
					c-0.2,0.4-0.6,1.5,0.5,2.1c1,0.6,2,0.1,2.4-0.7c0.6-1.2,1.8-2.3,4.2-2.3c1.5,0,2.8,0.3,3.8,1.6c0.9,1.1,1.1,2.3,1,4.7H79
					c-4.6,0-6.8,7.3-2,10.4c1.4,0.9,2.9,1.4,4.7,1.4c1.8,0,3.5-0.5,4.9-1.4c0.5-0.4,0.7-1.1,0.2-1.9c-0.4-0.7-1.1-1-2-0.4
					c-0.8,0.5-1.4,0.8-3.1,0.8c-1.8,0-2.9-0.6-3.9-1.8c-1.1-1.5-0.9-4.5,2.2-4.5h7.4c0,0,0,0,0,0.1h0v7c0,0,0,0,0,0v0.4
					c0,0.5,0.2,1,0.5,1.3c0.3,0.3,0.7,0.5,1.2,0.5c0.5,0,0.8-0.2,1.2-0.5c0.3-0.3,0.5-0.7,0.5-1.3c0,0,0-8.7,0-8.7
					C90.8,15.8,91.1,13.4,88.9,10.8z"/>
			</g>
		</g>
	</g>
</g>
</svg>
