<?xml version="1.0" encoding="iso-8859-1"?><!DOCTYPE svg PUBLIC "-//W3C//DTD SVG 1.1//EN" "http://www.w3.org/Graphics/SVG/1.1/DTD/svg11.dtd"><svg xmlns="http://www.w3.org/2000/svg" xmlns:xlink="http://www.w3.org/1999/xlink"><symbol viewBox="0 0 477 477" id="address" xmlns="http://www.w3.org/2000/svg"><g fill="#FFF"><path d="M238.4 0C133 0 47.2 85.8 47.2 191.2c0 12 1.1 24.1 3.4 35.9.1.7.5 2.8 1.3 6.4 2.9 12.9 7.2 25.6 12.8 37.7 20.6 48.5 65.9 123 165.3 202.8 2.5 2 5.5 3 8.5 3s6-1 8.5-3c99.3-79.8 144.7-154.3 165.3-202.8 5.6-12.1 9.9-24.7 12.8-37.7.8-3.6 1.2-5.7 1.3-6.4 2.2-11.8 3.4-23.9 3.4-35.9C429.6 85.8 343.8 0 238.4 0zm161.2 222.4c0 .2-.1.4-.1.6-.1.5-.4 2-.9 4.3v.2c-2.5 11.2-6.2 22.1-11.1 32.6-.1.1-.1.3-.2.4-18.7 44.3-59.7 111.9-148.9 185.6-89.2-73.7-130.2-141.3-148.9-185.6-.1-.1-.1-.3-.2-.4-4.8-10.4-8.5-21.4-11.1-32.6v-.2c-.6-2.3-.8-3.8-.9-4.3 0-.2-.1-.4-.1-.7-2-10.3-3-20.7-3-31.2 0-90.5 73.7-164.2 164.2-164.2s164.2 73.7 164.2 164.2c0 10.6-1 21.1-3 31.3z"/><path d="M238.4 71.9c-66.9 0-121.4 54.5-121.4 121.4s54.5 121.4 121.4 121.4 121.4-54.5 121.4-121.4S305.3 71.9 238.4 71.9zm0 215.8c-52.1 0-94.4-42.4-94.4-94.4s42.4-94.4 94.4-94.4 94.4 42.4 94.4 94.4-42.3 94.4-94.4 94.4z"/></g></symbol><symbol viewBox="0 0 97.16 97.16" id="clock" xmlns="http://www.w3.org/2000/svg"><path d="M48.58 0C21.793 0 0 21.793 0 48.58s21.793 48.58 48.58 48.58 48.58-21.793 48.58-48.58S75.367 0 48.58 0zm0 86.823c-21.087 0-38.244-17.155-38.244-38.243S27.493 10.337 48.58 10.337 86.824 27.492 86.824 48.58 69.667 86.823 48.58 86.823z"/><path d="M73.898 47.08H52.066V20.83a4 4 0 0 0-8 0v30.25a4 4 0 0 0 4 4h25.832a4 4 0 0 0 0-8z"/></symbol><symbol viewBox="0 0 612 612" id="clock-outline" xmlns="http://www.w3.org/2000/svg"><path d="M306 0C136.992 0 0 136.992 0 306s136.992 306 306 306 306-137.012 306-306S475.008 0 306 0zm0 573.157C158.451 573.157 38.843 453.55 38.843 306 38.843 158.451 158.451 38.843 306 38.843c147.55 0 267.157 119.608 267.157 267.157 0 147.55-119.607 267.157-267.157 267.157zm19.125-457.202h-37.657l.593 209.782 132.077 112.952 23.313-32.876-118.326-99.221V115.955z" fill="#FFF"/></symbol><symbol viewBox="0 0 511.999 511.999" id="email" xmlns="http://www.w3.org/2000/svg"><path d="M444.253 47.065H67.747C30.392 47.065.002 77.456.002 114.81v282.379c0 37.355 30.39 67.745 67.745 67.745h376.506c37.355 0 67.745-30.391 67.745-67.745V114.81c0-37.355-30.39-67.745-67.745-67.745zm26.381 350.124c0 14.546-11.835 26.381-26.381 26.381H67.747c-14.546 0-26.381-11.835-26.381-26.381V114.81c0-14.546 11.835-26.381 26.381-26.381h376.506c14.546 0 26.381 11.835 26.381 26.381v282.379z" fill="#FFF"/><path d="M508.259 102.95c-6.549-9.357-19.443-11.633-28.804-5.083L255.999 254.284 32.544 97.866c-9.357-6.551-22.253-4.274-28.803 5.083s-4.274 22.253 5.083 28.803L244.14 296.474a20.652 20.652 0 0 0 11.86 3.738c4.149 0 8.299-1.246 11.86-3.738l235.316-164.721c9.357-6.55 11.633-19.446 5.083-28.803z" fill="#FFF"/></symbol><symbol viewBox="0 0 359.448 359.448" id="headset" xmlns="http://www.w3.org/2000/svg"><path d="M354.724 171.16c0-26.69-14.734-49.991-36.486-62.236C304.906 46.92 245 0 173.319 0 97.486 0 34.83 52.514 26.559 119.847 13.112 132.835 4.724 151.031 4.724 171.16c0 39.358 32.021 71.379 71.379 71.379a5 5 0 0 0 5-5v-132.76a5 5 0 0 0-5-5c-3.361 0-6.664.25-9.904.703 15.92-38.884 57.928-66.729 107.12-66.729 49.269 0 91.329 27.933 107.192 66.913a4.99 4.99 0 0 0-2.166 4.114v132.76a5 5 0 0 0 5 5c1.654 0 3.289-.077 4.915-.188-11.071 34.443-41.038 61.811-79.183 72.519-4.566-7.385-12.735-12.309-22.056-12.309h-27.404c-14.312 0-25.917 11.603-25.917 25.916v5.054c0 14.314 11.605 25.918 25.917 25.918h27.404c13.065 0 23.87-9.672 25.653-22.247 51.311-13.492 90.777-52.673 100.435-101.19 24.535-11.308 41.615-36.116 41.615-64.853z"/></symbol><symbol id="logo-nueva-bk" viewBox="0 0 107 30.5" xmlns="http://www.w3.org/2000/svg"><style>.Arched_x0020_Green{fill:url(#fSVGID_1_);stroke:#fff;stroke-width:.25;stroke-miterlimit:1}.fst0{fill:#707173}</style><linearGradient id="fSVGID_1_" gradientUnits="userSpaceOnUse" x1="-244.5" y1="435.147" x2="-243.793" y2="434.44"><stop offset="0" stop-color="#259e2e"/><stop offset=".983" stop-color="#1c381d"/></linearGradient><path class="fst0" d="M98.5 4.8c0 .4-.3.7-.7.7-.4 0-.7-.3-.7-.7V1.7c0-.4.3-.7.7-.7.4 0 .7.3.7.7v3.1zm-1.3 6.7c0-.4.3-.7.7-.7.4 0 .7.3.7.7v3.1c0 .4-.3.7-.7.7-.4 0-.7-.3-.7-.7v-3.1zm3.5-5.3c-.3.3-.7.3-.9 0-.3-.3-.3-.7 0-.9l2.2-2.2c.3-.3.7-.3.9 0 .3.3.3.7 0 .9l-2.2 2.2zM95 10.1c.3-.3.7-.3.9 0 .3.3.3.7 0 .9l-2.2 2.2c-.3.3-.7.3-.9 0-.3-.3-.3-.7 0-.9l2.2-2.2zm6.2-1.3c-.4 0-.7-.3-.7-.7 0-.4.3-.7.7-.7h3.1c.4 0 .7.3.7.7 0 .4-.3.7-.7.7h-3.1zm-6.7-1.3c.4 0 .7.3.7.7 0 .4-.3.7-.7.7h-3.1c-.4 0-.7-.3-.7-.7 0-.4.3-.7.7-.7h3.1zm5.3 3.5c-.3-.3-.3-.7 0-.9.3-.3.7-.3.9 0l2.2 2.2c.3.3.3.7 0 .9-.3.3-.7.3-.9 0L99.8 11zm-3.9-5.7c.3.3.3.7 0 .9-.3.3-.7.3-.9 0L92.8 4c-.3-.3-.3-.7 0-.9.3-.3.7-.3.9 0l2.2 2.2z"/><circle class="fst0" cx="97.9" cy="8.2" r="1"/><path class="fst0" d="M74.4 8.9c-.3-.3-.7-.5-1.2-.5-.9 0-1.4.5-1.8 1.4l-6.6 14.1-6.5-14.1c-.4-1-.9-1.4-1.8-1.4-.4 0-.9.2-1.2.5-.3.3-.5.7-.5 1.2s.2.9.4 1.2L63 28.2c.3.7 1 1.2 1.8 1.2s1.5-.5 1.8-1.2l7.8-16.9c.1-.3.4-.7.4-1.2.1-.5-.1-.9-.4-1.2zm-54.6 1.2c0-.5.2-1 .5-1.3.3-.3.7-.5 1.2-.5s.9.2 1.2.5c.3.3.5.7.5 1.3v11.2c0 1.6.4 2.8 1.2 3.7.8.9 2 1.4 3.5 1.4 3.2 0 4.8-1.7 4.8-5.1V10.1c0-.5.2-1 .5-1.3.3-.3.7-.5 1.2-.5s.9.2 1.2.5c.3.3.5.7.5 1.3v11.3c0 1.4-.3 2.7-.8 3.9-.6 1.2-1.5 2.2-2.7 2.9-1.2.7-2.8 1.1-4.7 1.1-1.8 0-3.3-.4-4.5-1.1-1.2-.7-2.1-1.7-2.6-2.9-.6-1.2-.9-2.5-.9-4V10.1zm-1.5 17.5c0 .5-.2 1-.5 1.3-.3.3-.7.5-1.2.5s-.9-.2-1.2-.5c-.3-.3-.5-.7-.5-1.3V16.4c0-1.6-.4-2.8-1.2-3.7-.8-.9-2-1.4-3.5-1.4-3.2 0-4.8 1.7-4.8 5.1v11.2c0 .5-.2 1-.5 1.3-.3.3-.7.5-1.2.5s-.9-.2-1.2-.5c-.3-.3-.5-.7-.5-1.3V16.4c0-1.4.3-2.7.8-3.9.6-1.2 1.5-2.2 2.7-2.9 1.2-.7 2.8-1.1 4.7-1.1 1.8 0 3.3.4 4.5 1.1 1.2.7 2.1 1.7 2.6 2.9.6 1.2.9 2.5.9 4v11.1zM54 23.7c-.3 0-.7.2-1.3.6-1.7 1.4-3.5 2.1-5.5 2.1-1.1 0-2.2-.2-3.1-.7-.9-.5-1.7-1.2-2.2-2.1-.6-.9-1.1-3.2-1.1-4.8 0-2.1.8-4.8 1.9-5.9 1-1.1 2.4-1.7 4.1-1.7 1.7 0 3 .6 4 1.8 1 1.1 1.5 2.7 1.5 4.5h-9.5s-1.1-.1-1.1 1.3c0 1.4 1.1 1.3 1.1 1.3h11c1.3 0 1.9-.6 1.9-1.7 0-1.7-.4-3.4-1.1-4.9-.7-1.6-1.8-2.8-3.2-3.8-1.4-1-2.9-1.4-4.7-1.4-1.8 0-3.4.5-4.7 1.5-1.3 1-2.4 2.3-3.1 3.8-.7 1.6-1.1 3.2-1.2 5 0 0 0 2 .5 3.9.3 1.2.9 2.3 1.6 3.4.8 1 1.7 1.9 3 2.5 1.2.6 2.7.9 4.4.9 1.6 0 3.1-.3 4.5-.9 1.4-.6 2.5-1.3 3.2-2.1.3-.4.5-.8.5-1.2 0-.4-.1-.7-.3-1-.4-.2-.7-.4-1.1-.4zm34.9-12.9c-1.5-1.8-3.6-2.4-6.4-2.4-2 0-3.5.5-4.6 1.2-1.2.7-2 1.8-2.4 2.6-.2.4-.6 1.5.5 2.1 1 .6 2 .1 2.4-.7.6-1.2 1.8-2.3 4.2-2.3 1.5 0 2.8.3 3.8 1.6.9 1.1 1.1 2.3 1 4.7H79c-4.6 0-6.8 7.3-2 10.4 1.4.9 2.9 1.4 4.7 1.4 1.8 0 3.5-.5 4.9-1.4.5-.4.7-1.1.2-1.9-.4-.7-1.1-1-2-.4-.8.5-1.4.8-3.1.8-1.8 0-2.9-.6-3.9-1.8-1.1-1.5-.9-4.5 2.2-4.5h7.4v7.5c0 .5.2 1 .5 1.3.3.3.7.5 1.2.5s.8-.2 1.2-.5c.3-.3.5-.7.5-1.3V19c0-3.2.3-5.6-1.9-8.2z"/></symbol><symbol id="logo-nueva-wh" viewBox="0 0 107 30.5" xmlns="http://www.w3.org/2000/svg"><style>.Arched_x0020_Green{fill:url(#gSVGID_1_);stroke:#fff;stroke-width:.25;stroke-miterlimit:1}.gst0{fill:#fff}</style><linearGradient id="gSVGID_1_" gradientUnits="userSpaceOnUse" x1="-244.5" y1="435.147" x2="-243.793" y2="434.44"><stop offset="0" stop-color="#259e2e"/><stop offset=".983" stop-color="#1c381d"/></linearGradient><path class="gst0" d="M98.5 4.8c0 .4-.3.7-.7.7-.4 0-.7-.3-.7-.7V1.7c0-.4.3-.7.7-.7.4 0 .7.3.7.7v3.1zm-1.3 6.7c0-.4.3-.7.7-.7.4 0 .7.3.7.7v3.1c0 .4-.3.7-.7.7-.4 0-.7-.3-.7-.7v-3.1zm3.5-5.3c-.3.3-.7.3-.9 0-.3-.3-.3-.7 0-.9l2.2-2.2c.3-.3.7-.3.9 0 .3.3.3.7 0 .9l-2.2 2.2zM95 10.1c.3-.3.7-.3.9 0 .3.3.3.7 0 .9l-2.2 2.2c-.3.3-.7.3-.9 0-.3-.3-.3-.7 0-.9l2.2-2.2zm6.2-1.3c-.4 0-.7-.3-.7-.7 0-.4.3-.7.7-.7h3.1c.4 0 .7.3.7.7 0 .4-.3.7-.7.7h-3.1zm-6.7-1.3c.4 0 .7.3.7.7 0 .4-.3.7-.7.7h-3.1c-.4 0-.7-.3-.7-.7 0-.4.3-.7.7-.7h3.1zm5.3 3.5c-.3-.3-.3-.7 0-.9.3-.3.7-.3.9 0l2.2 2.2c.3.3.3.7 0 .9-.3.3-.7.3-.9 0L99.8 11zm-3.9-5.7c.3.3.3.7 0 .9-.3.3-.7.3-.9 0L92.8 4c-.3-.3-.3-.7 0-.9.3-.3.7-.3.9 0l2.2 2.2z"/><circle class="gst0" cx="97.9" cy="8.2" r="1"/><path class="gst0" d="M74.4 8.9c-.3-.3-.7-.5-1.2-.5-.9 0-1.4.5-1.8 1.4l-6.6 14.1-6.5-14.1c-.4-1-.9-1.4-1.8-1.4-.4 0-.9.2-1.2.5-.3.3-.5.7-.5 1.2s.2.9.4 1.2L63 28.2c.3.7 1 1.2 1.8 1.2s1.5-.5 1.8-1.2l7.8-16.9c.1-.3.4-.7.4-1.2.1-.5-.1-.9-.4-1.2zm-54.6 1.2c0-.5.2-1 .5-1.3.3-.3.7-.5 1.2-.5s.9.2 1.2.5c.3.3.5.7.5 1.3v11.2c0 1.6.4 2.8 1.2 3.7.8.9 2 1.4 3.5 1.4 3.2 0 4.8-1.7 4.8-5.1V10.1c0-.5.2-1 .5-1.3.3-.3.7-.5 1.2-.5s.9.2 1.2.5c.3.3.5.7.5 1.3v11.3c0 1.4-.3 2.7-.8 3.9-.6 1.2-1.5 2.2-2.7 2.9-1.2.7-2.8 1.1-4.7 1.1-1.8 0-3.3-.4-4.5-1.1-1.2-.7-2.1-1.7-2.6-2.9-.6-1.2-.9-2.5-.9-4V10.1zm-1.5 17.5c0 .5-.2 1-.5 1.3-.3.3-.7.5-1.2.5s-.9-.2-1.2-.5c-.3-.3-.5-.7-.5-1.3V16.4c0-1.6-.4-2.8-1.2-3.7-.8-.9-2-1.4-3.5-1.4-3.2 0-4.8 1.7-4.8 5.1v11.2c0 .5-.2 1-.5 1.3-.3.3-.7.5-1.2.5s-.9-.2-1.2-.5c-.3-.3-.5-.7-.5-1.3V16.4c0-1.4.3-2.7.8-3.9.6-1.2 1.5-2.2 2.7-2.9 1.2-.7 2.8-1.1 4.7-1.1 1.8 0 3.3.4 4.5 1.1 1.2.7 2.1 1.7 2.6 2.9.6 1.2.9 2.5.9 4v11.1zM54 23.7c-.3 0-.7.2-1.3.6-1.7 1.4-3.5 2.1-5.5 2.1-1.1 0-2.2-.2-3.1-.7-.9-.5-1.7-1.2-2.2-2.1-.6-.9-1.1-3.2-1.1-4.8 0-2.1.8-4.8 1.9-5.9 1-1.1 2.4-1.7 4.1-1.7 1.7 0 3 .6 4 1.8 1 1.1 1.5 2.7 1.5 4.5h-9.5s-1.1-.1-1.1 1.3c0 1.4 1.1 1.3 1.1 1.3h11c1.3 0 1.9-.6 1.9-1.7 0-1.7-.4-3.4-1.1-4.9-.7-1.6-1.8-2.8-3.2-3.8-1.4-1-2.9-1.4-4.7-1.4-1.8 0-3.4.5-4.7 1.5-1.3 1-2.4 2.3-3.1 3.8-.7 1.6-1.1 3.2-1.2 5 0 0 0 2 .5 3.9.3 1.2.9 2.3 1.6 3.4.8 1 1.7 1.9 3 2.5 1.2.6 2.7.9 4.4.9 1.6 0 3.1-.3 4.5-.9 1.4-.6 2.5-1.3 3.2-2.1.3-.4.5-.8.5-1.2 0-.4-.1-.7-.3-1-.4-.2-.7-.4-1.1-.4zm34.9-12.9c-1.5-1.8-3.6-2.4-6.4-2.4-2 0-3.5.5-4.6 1.2-1.2.7-2 1.8-2.4 2.6-.2.4-.6 1.5.5 2.1 1 .6 2 .1 2.4-.7.6-1.2 1.8-2.3 4.2-2.3 1.5 0 2.8.3 3.8 1.6.9 1.1 1.1 2.3 1 4.7H79c-4.6 0-6.8 7.3-2 10.4 1.4.9 2.9 1.4 4.7 1.4 1.8 0 3.5-.5 4.9-1.4.5-.4.7-1.1.2-1.9-.4-.7-1.1-1-2-.4-.8.5-1.4.8-3.1.8-1.8 0-2.9-.6-3.9-1.8-1.1-1.5-.9-4.5 2.2-4.5h7.4v7.5c0 .5.2 1 .5 1.3.3.3.7.5 1.2.5s.8-.2 1.2-.5c.3-.3.5-.7.5-1.3V19c0-3.2.3-5.6-1.9-8.2z"/></symbol><symbol viewBox="0 0 317.825 317.825" id="menu" xmlns="http://www.w3.org/2000/svg"><path d="M301.934 143.021H15.891C7.119 143.021 0 150.14 0 158.912s7.119 15.891 15.891 15.891h286.042c8.74 0 15.891-7.119 15.891-15.891.001-8.772-7.15-15.891-15.89-15.891zM15.891 79.456h286.042c8.74 0 15.891-7.119 15.891-15.891s-7.151-15.891-15.891-15.891H15.891C7.119 47.674 0 54.793 0 63.565s7.119 15.891 15.891 15.891zM301.934 238.369H15.891C7.119 238.369 0 245.52 0 254.26s7.119 15.891 15.891 15.891h286.042c8.74 0 15.891-7.151 15.891-15.891.001-8.74-7.15-15.891-15.89-15.891z"/></symbol><symbol viewBox="0 0 578.106 578.106" id="phone" xmlns="http://www.w3.org/2000/svg"><path d="M577.83 456.128c1.225 9.385-1.635 17.545-8.568 24.48l-81.396 80.781c-3.672 4.08-8.465 7.551-14.381 10.404-5.916 2.857-11.729 4.693-17.439 5.508-.408 0-1.635.105-3.676.309-2.037.203-4.689.307-7.953.307-7.754 0-20.301-1.326-37.641-3.979s-38.555-9.182-63.645-19.584c-25.096-10.404-53.553-26.012-85.376-46.818-31.823-20.805-65.688-49.367-101.592-85.68-28.56-28.152-52.224-55.08-70.992-80.783-18.768-25.705-33.864-49.471-45.288-71.299-11.425-21.828-19.993-41.616-25.705-59.364S4.59 177.362 2.55 164.51-.306 141.56.102 134.216c.408-7.344.612-11.424.612-12.24.816-5.712 2.652-11.526 5.508-17.442s6.324-10.71 10.404-14.382L98.022 8.756c5.712-5.712 12.24-8.568 19.584-8.568 5.304 0 9.996 1.53 14.076 4.59s7.548 6.834 10.404 11.322l65.484 124.236c3.672 6.528 4.692 13.668 3.06 21.42-1.632 7.752-5.1 14.28-10.404 19.584l-29.988 29.988c-.816.816-1.53 2.142-2.142 3.978s-.918 3.366-.918 4.59c1.632 8.568 5.304 18.36 11.016 29.376 4.896 9.792 12.444 21.726 22.644 35.802s24.684 30.293 43.452 48.653c18.36 18.77 34.68 33.354 48.96 43.76 14.277 10.4 26.215 18.053 35.803 22.949 9.588 4.896 16.932 7.854 22.031 8.871l7.648 1.531c.816 0 2.145-.307 3.979-.918 1.836-.613 3.162-1.326 3.979-2.143l34.883-35.496c7.348-6.527 15.912-9.791 25.705-9.791 6.938 0 12.443 1.223 16.523 3.672h.611l118.115 69.768c8.571 5.308 13.67 12.038 15.303 20.198z" fill="#FFF"/></symbol><symbol viewBox="0 0 473.806 473.806" id="phone-call" xmlns="http://www.w3.org/2000/svg"><g fill="#FFF"><path d="M374.456 293.506c-9.7-10.1-21.4-15.5-33.8-15.5-12.3 0-24.1 5.3-34.2 15.4l-31.6 31.5c-2.6-1.4-5.2-2.7-7.7-4-3.6-1.8-7-3.5-9.9-5.3-29.6-18.8-56.5-43.3-82.3-75-12.5-15.8-20.9-29.1-27-42.6 8.2-7.5 15.8-15.3 23.2-22.8 2.8-2.8 5.6-5.7 8.4-8.5 21-21 21-48.2 0-69.2l-27.3-27.3c-3.1-3.1-6.3-6.3-9.3-9.5-6-6.2-12.3-12.6-18.8-18.6-9.7-9.6-21.3-14.7-33.5-14.7s-24 5.1-34 14.7l-.2.2-34 34.3c-12.8 12.8-20.1 28.4-21.7 46.5-2.4 29.2 6.2 56.4 12.8 74.2 16.2 43.7 40.4 84.2 76.5 127.6 43.8 52.3 96.5 93.6 156.7 122.7 23 10.9 53.7 23.8 88 26 2.1.1 4.3.2 6.3.2 23.1 0 42.5-8.3 57.7-24.8.1-.2.3-.3.4-.5 5.2-6.3 11.2-12 17.5-18.1 4.3-4.1 8.7-8.4 13-12.9 9.9-10.3 15.1-22.3 15.1-34.6 0-12.4-5.3-24.3-15.4-34.3l-54.9-55.1zm35.8 105.3c-.1 0-.1.1 0 0-3.9 4.2-7.9 8-12.2 12.2-6.5 6.2-13.1 12.7-19.3 20-10.1 10.8-22 15.9-37.6 15.9-1.5 0-3.1 0-4.6-.1-29.7-1.9-57.3-13.5-78-23.4-56.6-27.4-106.3-66.3-147.6-115.6-34.1-41.1-56.9-79.1-72-119.9-9.3-24.9-12.7-44.3-11.2-62.6 1-11.7 5.5-21.4 13.8-29.7l34.1-34.1c4.9-4.6 10.1-7.1 15.2-7.1 6.3 0 11.4 3.8 14.6 7l.3.3c6.1 5.7 11.9 11.6 18 17.9 3.1 3.2 6.3 6.4 9.5 9.7l27.3 27.3c10.6 10.6 10.6 20.4 0 31-2.9 2.9-5.7 5.8-8.6 8.6-8.4 8.6-16.4 16.6-25.1 24.4-.2.2-.4.3-.5.5-8.6 8.6-7 17-5.2 22.7l.3.9c7.1 17.2 17.1 33.4 32.3 52.7l.1.1c27.6 34 56.7 60.5 88.8 80.8 4.1 2.6 8.3 4.7 12.3 6.7 3.6 1.8 7 3.5 9.9 5.3.4.2.8.5 1.2.7 3.4 1.7 6.6 2.5 9.9 2.5 8.3 0 13.5-5.2 15.2-6.9l34.2-34.2c3.4-3.4 8.8-7.5 15.1-7.5 6.2 0 11.3 3.9 14.4 7.3l.2.2 55.1 55.1c10.3 10.2 10.3 20.7.1 31.3zM256.056 112.706c26.2 4.4 50 16.8 69 35.8s31.3 42.8 35.8 69c1.1 6.6 6.8 11.2 13.3 11.2.8 0 1.5-.1 2.3-.2 7.4-1.2 12.3-8.2 11.1-15.6-5.4-31.7-20.4-60.6-43.3-83.5s-51.8-37.9-83.5-43.3c-7.4-1.2-14.3 3.7-15.6 11s3.5 14.4 10.9 15.6zM473.256 209.006c-8.9-52.2-33.5-99.7-71.3-137.5s-85.3-62.4-137.5-71.3c-7.3-1.3-14.2 3.7-15.5 11-1.2 7.4 3.7 14.3 11.1 15.6 46.6 7.9 89.1 30 122.9 63.7 33.8 33.8 55.8 76.3 63.7 122.9 1.1 6.6 6.8 11.2 13.3 11.2.8 0 1.5-.1 2.3-.2 7.3-1.1 12.3-8.1 11-15.4z"/></g></symbol><symbol viewBox="0 0 512 512" id="pin" xmlns="http://www.w3.org/2000/svg"><path d="M256 0C161.896 0 85.333 76.563 85.333 170.667c0 28.25 7.063 56.26 20.49 81.104L246.667 506.5c1.875 3.396 5.448 5.5 9.333 5.5s7.458-2.104 9.333-5.5l140.896-254.813c13.375-24.76 20.438-52.771 20.438-81.021C426.667 76.563 350.104 0 256 0zm0 256c-47.052 0-85.333-38.281-85.333-85.333S208.948 85.334 256 85.334s85.333 38.281 85.333 85.333S303.052 256 256 256z"/></symbol><symbol viewBox="0 0 510 510" id="question" xmlns="http://www.w3.org/2000/svg"><path d="M255 0C114.75 0 0 114.75 0 255s114.75 255 255 255 255-114.75 255-255S395.25 0 255 0zm25.5 433.5h-51v-51h51v51zm53.55-196.35L311.1 260.1c-20.399 17.851-30.6 33.15-30.6 71.4h-51v-12.75c0-28.05 10.2-53.55 30.6-71.4l30.6-33.15c10.2-7.65 15.3-20.4 15.3-35.7 0-28.05-22.95-51-51-51s-51 22.95-51 51h-51c0-56.1 45.9-102 102-102s102 45.9 102 102c0 22.95-10.2 43.35-22.95 58.65z"/></symbol></svg>