<svg id="Layer_1" xmlns="http://www.w3.org/2000/svg" viewBox="0 0 107 30.5"><style>.Arched_x0020_Green{fill:url(#SVGID_1_);stroke:#fff;stroke-width:.25;stroke-miterlimit:1}.st0{fill:#fff}</style><linearGradient id="SVGID_1_" gradientUnits="userSpaceOnUse" x1="-244.5" y1="435.147" x2="-243.793" y2="434.44"><stop offset="0" stop-color="#259e2e"/><stop offset=".983" stop-color="#1c381d"/></linearGradient><path class="st0" d="M98.5 4.8c0 .4-.3.7-.7.7-.4 0-.7-.3-.7-.7V1.7c0-.4.3-.7.7-.7.4 0 .7.3.7.7v3.1zm-1.3 6.7c0-.4.3-.7.7-.7.4 0 .7.3.7.7v3.1c0 .4-.3.7-.7.7-.4 0-.7-.3-.7-.7v-3.1zm3.5-5.3c-.3.3-.7.3-.9 0-.3-.3-.3-.7 0-.9l2.2-2.2c.3-.3.7-.3.9 0 .3.3.3.7 0 .9l-2.2 2.2zM95 10.1c.3-.3.7-.3.9 0 .3.3.3.7 0 .9l-2.2 2.2c-.3.3-.7.3-.9 0-.3-.3-.3-.7 0-.9l2.2-2.2zm6.2-1.3c-.4 0-.7-.3-.7-.7 0-.4.3-.7.7-.7h3.1c.4 0 .7.3.7.7 0 .4-.3.7-.7.7h-3.1zm-6.7-1.3c.4 0 .7.3.7.7 0 .4-.3.7-.7.7h-3.1c-.4 0-.7-.3-.7-.7 0-.4.3-.7.7-.7h3.1zm5.3 3.5c-.3-.3-.3-.7 0-.9.3-.3.7-.3.9 0l2.2 2.2c.3.3.3.7 0 .9-.3.3-.7.3-.9 0L99.8 11zm-3.9-5.7c.3.3.3.7 0 .9-.3.3-.7.3-.9 0L92.8 4c-.3-.3-.3-.7 0-.9.3-.3.7-.3.9 0l2.2 2.2z"/><circle class="st0" cx="97.9" cy="8.2" r="1"/><path class="st0" d="M74.4 8.9c-.3-.3-.7-.5-1.2-.5-.9 0-1.4.5-1.8 1.4l-6.6 14.1-6.5-14.1c-.4-1-.9-1.4-1.8-1.4-.4 0-.9.2-1.2.5-.3.3-.5.7-.5 1.2s.2.9.4 1.2L63 28.2c.3.7 1 1.2 1.8 1.2s1.5-.5 1.8-1.2l7.8-16.9c.1-.3.4-.7.4-1.2.1-.5-.1-.9-.4-1.2zm-54.6 1.2c0-.5.2-1 .5-1.3.3-.3.7-.5 1.2-.5s.9.2 1.2.5c.3.3.5.7.5 1.3v11.2c0 1.6.4 2.8 1.2 3.7.8.9 2 1.4 3.5 1.4 3.2 0 4.8-1.7 4.8-5.1V10.1c0-.5.2-1 .5-1.3.3-.3.7-.5 1.2-.5s.9.2 1.2.5c.3.3.5.7.5 1.3v11.3c0 1.4-.3 2.7-.8 3.9-.6 1.2-1.5 2.2-2.7 2.9-1.2.7-2.8 1.1-4.7 1.1-1.8 0-3.3-.4-4.5-1.1-1.2-.7-2.1-1.7-2.6-2.9-.6-1.2-.9-2.5-.9-4V10.1zm-1.5 17.5c0 .5-.2 1-.5 1.3-.3.3-.7.5-1.2.5s-.9-.2-1.2-.5c-.3-.3-.5-.7-.5-1.3V16.4c0-1.6-.4-2.8-1.2-3.7-.8-.9-2-1.4-3.5-1.4-3.2 0-4.8 1.7-4.8 5.1v11.2c0 .5-.2 1-.5 1.3-.3.3-.7.5-1.2.5s-.9-.2-1.2-.5c-.3-.3-.5-.7-.5-1.3V16.4c0-1.4.3-2.7.8-3.9.6-1.2 1.5-2.2 2.7-2.9 1.2-.7 2.8-1.1 4.7-1.1 1.8 0 3.3.4 4.5 1.1 1.2.7 2.1 1.7 2.6 2.9.6 1.2.9 2.5.9 4v11.1zM54 23.7c-.3 0-.7.2-1.3.6-1.7 1.4-3.5 2.1-5.5 2.1-1.1 0-2.2-.2-3.1-.7-.9-.5-1.7-1.2-2.2-2.1-.6-.9-1.1-3.2-1.1-4.8 0-2.1.8-4.8 1.9-5.9 1-1.1 2.4-1.7 4.1-1.7 1.7 0 3 .6 4 1.8 1 1.1 1.5 2.7 1.5 4.5h-9.5s-1.1-.1-1.1 1.3c0 1.4 1.1 1.3 1.1 1.3h11c1.3 0 1.9-.6 1.9-1.7 0-1.7-.4-3.4-1.1-4.9-.7-1.6-1.8-2.8-3.2-3.8-1.4-1-2.9-1.4-4.7-1.4-1.8 0-3.4.5-4.7 1.5-1.3 1-2.4 2.3-3.1 3.8-.7 1.6-1.1 3.2-1.2 5 0 0 0 2 .5 3.9.3 1.2.9 2.3 1.6 3.4.8 1 1.7 1.9 3 2.5 1.2.6 2.7.9 4.4.9 1.6 0 3.1-.3 4.5-.9 1.4-.6 2.5-1.3 3.2-2.1.3-.4.5-.8.5-1.2 0-.4-.1-.7-.3-1-.4-.2-.7-.4-1.1-.4zm34.9-12.9c-1.5-1.8-3.6-2.4-6.4-2.4-2 0-3.5.5-4.6 1.2-1.2.7-2 1.8-2.4 2.6-.2.4-.6 1.5.5 2.1 1 .6 2 .1 2.4-.7.6-1.2 1.8-2.3 4.2-2.3 1.5 0 2.8.3 3.8 1.6.9 1.1 1.1 2.3 1 4.7H79c-4.6 0-6.8 7.3-2 10.4 1.4.9 2.9 1.4 4.7 1.4 1.8 0 3.5-.5 4.9-1.4.5-.4.7-1.1.2-1.9-.4-.7-1.1-1-2-.4-.8.5-1.4.8-3.1.8-1.8 0-2.9-.6-3.9-1.8-1.1-1.5-.9-4.5 2.2-4.5h7.4v7.5c0 .5.2 1 .5 1.3.3.3.7.5 1.2.5s.8-.2 1.2-.5c.3-.3.5-.7.5-1.3V19c0-3.2.3-5.6-1.9-8.2z"/></svg>